<svg width="88" height="46" viewBox="0 0 88 46" fill="none" xmlns="http://www.w3.org/2000/svg">
<path fill-rule="evenodd" clip-rule="evenodd" d="M22.1114 0.270892C22.3453 0.504835 22.8744 1.86219 25.8851 9.94834L27.6241 14.6192L27.7047 7.4861C27.7735 1.38102 27.8198 0.331289 28.0268 0.200426C28.6094 -0.167602 35.7429 0.0127891 36.1282 0.405379C36.3243 0.604694 38.0783 2.79474 40.0268 5.27188C47.0608 14.2157 49.8532 17.712 49.9808 17.7357C50.0525 17.749 50.125 13.8432 50.1419 9.05686C50.1689 1.51873 50.2051 0.332903 50.4145 0.200831C50.7008 0.019636 63.287 -0.0113721 63.5693 0.168213C63.6732 0.234651 64.8413 2.17223 66.1644 4.47422C69.5234 10.318 69.9639 11.0464 70.129 11.0343C70.2091 11.0287 71.6446 8.64373 73.3192 5.73454C74.9939 2.82575 76.4821 0.355049 76.627 0.244319C76.9041 0.0325217 86.8336 -0.0633121 87.3651 0.140835C87.8946 0.343774 88.2348 -0.213903 79.7863 12.568C77.7219 15.6918 75.957 18.3884 75.8648 18.5604C75.6739 18.9171 75.1956 18.1424 82.3347 29.0411C87.3192 36.6509 87.3345 36.6751 87.1847 36.8244C87.1287 36.8804 84.6093 36.9263 81.5857 36.9263H76.0883L74.3375 33.8259C70.9459 27.819 70.3037 26.725 70.1374 26.6695C70.0448 26.6388 69.1795 28.0099 68.2139 29.7164C67.2488 31.4228 65.9438 33.7252 65.3144 34.8325L64.1696 36.8458L58.2131 36.8881L52.2567 36.9303L50.4584 34.7137C48.5687 32.384 46.9283 30.3542 41.6366 23.7969L38.4153 19.8054L38.3312 28.3256C38.2849 33.0117 38.2305 36.8639 38.2104 36.8861C38.1903 36.9082 35.1643 36.9263 31.486 36.9263H24.7987L24.6505 36.5639C24.5692 36.3646 24.1339 34.9694 23.6829 33.4635C23.2324 31.9575 22.7951 30.5623 22.7105 30.363L22.5575 30.0006H17.9157H13.2739L12.3296 33.1816C11.8106 34.9312 11.3222 36.4894 11.2449 36.6445C11.054 37.0258 0.162975 37.0866 0.162975 36.7065C0.162975 36.5853 1.03915 34.1391 2.11062 31.2706C3.18169 28.4017 4.63729 24.4963 5.34557 22.5918C13.3105 1.17325 13.6653 0.243109 13.902 0.146874C14.4235 -0.0653256 21.8879 0.0474177 22.1114 0.270892ZM17.8231 12.3925C17.4808 13.5634 15.476 20.7991 15.168 21.9769C15.0826 22.303 15.054 22.6111 15.1039 22.6614C15.3073 22.8644 20.779 22.7584 20.7766 22.5515C20.7738 22.2833 18.0776 12.2668 17.9829 12.1722C17.9427 12.1315 17.8706 12.2306 17.8231 12.3925ZM60.7225 18.8934V24.601L62.5147 21.865C63.5004 20.3602 64.3384 19.0464 64.377 18.9457C64.4346 18.7959 61.341 13.8593 60.863 13.3387C60.7829 13.2513 60.7225 15.6379 60.7225 18.8934ZM16.4935 38.1476C16.5475 38.2877 16.5914 39.1212 16.5914 39.9998C16.5914 41.914 16.622 41.9281 17.9729 40.6308C18.5265 40.0993 19.0902 39.6644 19.2255 39.6644C19.7905 39.6644 19.6677 40.0682 18.8712 40.8281C17.844 41.8077 17.8436 41.7908 18.9461 42.9054C19.4486 43.4127 19.8025 43.8987 19.7421 43.997C19.5094 44.373 19.0073 44.1387 18.1496 43.2533C17.1321 42.2027 16.6622 42.2776 16.56 43.5065C16.5213 43.97 16.4428 44.0936 16.1887 44.0936C15.875 44.0936 15.5835 38.8136 15.8577 38.0993C15.9685 37.8106 16.3759 37.8412 16.4935 38.1476ZM27.7047 38.791L27.7852 39.5839L28.6207 39.668C29.9902 39.8057 29.9293 40.4117 28.5374 40.5015L27.7852 40.5502L27.7385 41.6809C27.6652 43.459 28.6179 44.1371 29.631 43.0278C29.8834 42.7515 30.1693 42.5744 30.2664 42.6344C30.8321 42.9843 29.8637 44.1564 28.9126 44.2732C27.546 44.4407 26.9022 43.546 26.9002 41.4763C26.8994 40.522 26.8792 40.4697 26.514 40.4697C26.3018 40.4697 26.082 40.3485 26.0252 40.2007C25.9124 39.9068 26.1746 39.6708 26.6175 39.6668C26.8418 39.6648 26.8994 39.523 26.8994 38.9718C26.8994 37.6829 27.5766 37.5307 27.7047 38.791ZM33.8855 38.2519C34.1283 38.6372 33.6737 39.0962 33.1989 38.9452C32.8224 38.8256 32.7504 38.3876 33.0568 38.0811C33.3117 37.8263 33.6632 37.8987 33.8855 38.2519ZM56.2071 38.2044C56.3025 38.3827 56.3738 39.6499 56.3738 41.1743C56.3738 44.0433 56.3662 44.069 55.488 44.1238C55.2222 44.1403 54.772 44.2023 54.4874 44.2619C53.3342 44.5027 52.2357 43.5931 52.0787 42.2667C51.8826 40.6122 52.8502 39.5867 54.4813 39.7195L55.4074 39.7948V39.2464C55.4074 38.8108 55.343 38.698 55.095 38.698C54.7153 38.698 54.5675 38.4927 54.6992 38.1488C54.8486 37.7598 55.9917 37.8017 56.2071 38.2044ZM59.8367 38.4564C59.8367 38.8639 59.7738 38.9396 59.436 38.9396C59.0205 38.9396 58.8381 38.58 59.0169 38.1138C59.1956 37.6479 59.8367 37.916 59.8367 38.4564ZM70.323 38.307C70.4422 38.7822 70.2264 39.0757 69.8165 38.9952C69.3764 38.9086 69.1565 38.452 69.4086 38.148C69.7376 37.7514 70.2038 37.8327 70.323 38.307ZM74.5739 38.791L74.6544 39.5839L75.376 39.6354C76.7672 39.734 76.7909 40.4121 75.4066 40.5015L74.6544 40.5502L74.6633 41.8178C74.6758 43.5923 75.4931 44.1306 76.5002 43.0278C76.9669 42.5168 77.312 42.516 77.312 43.0262C77.312 43.4272 76.5034 44.1508 75.926 44.2659C74.5751 44.5361 73.7686 43.548 73.7686 41.6225C73.7686 40.5152 73.7662 40.5096 73.2854 40.4133C72.9979 40.3557 72.8022 40.2156 72.8022 40.067C72.8022 39.9185 72.9979 39.7783 73.2854 39.7208C73.7295 39.6318 73.7686 39.5702 73.7686 38.9517C73.7686 37.6789 74.447 37.5436 74.5739 38.791ZM85.8499 38.218C85.955 38.4145 86.015 39.4631 86.0009 40.8651C85.9759 43.3459 86.0113 43.5299 86.5139 43.5299C86.7361 43.5299 86.8211 43.6185 86.784 43.8117C86.7099 44.1959 84.1571 44.2422 84.1571 43.8593C84.1571 43.7304 84.3383 43.5822 84.5598 43.5299L84.9624 43.4353L85.0067 41.0878L85.0514 38.7399L84.5638 38.6424C84.0738 38.5446 83.8994 38.152 84.2779 37.9994C84.8191 37.7808 85.68 37.9007 85.8499 38.218ZM8.25879 39.7554C9.13497 39.9644 9.34354 40.4777 9.34354 42.4242C9.34354 44.0413 9.32019 44.1741 9.03471 44.1741C8.86519 44.1741 8.69808 44.0904 8.66386 43.9877C8.61957 43.8548 8.38401 43.8842 7.84687 44.0896C6.48307 44.6102 5.15592 44.0562 5.15592 42.9662C5.15592 42.0409 6.14685 41.4361 7.66285 41.4361C8.55997 41.4361 8.66949 41.3378 8.37837 40.7942C8.15691 40.3799 7.43294 40.2579 6.53662 40.4834C5.71078 40.6916 5.21833 40.5039 5.59723 40.125C5.82835 39.8939 7.24933 39.5077 7.57185 39.5887C7.70473 39.6217 8.01397 39.697 8.25879 39.7554ZM14.6244 39.8637C14.961 40.1431 14.5841 40.3686 13.755 40.3843C12.2459 40.4125 11.257 43.5299 12.7573 43.5299C12.9699 43.5299 13.054 43.6209 13.0174 43.8117C12.9433 44.1959 10.3904 44.2422 10.3904 43.8593C10.3904 43.7304 10.5716 43.5822 10.7931 43.5303C11.1817 43.4389 11.1974 43.3841 11.2417 41.974L11.288 40.5124L10.7987 40.4145C10.2789 40.3106 10.1404 39.9249 10.5648 39.7622C11.0581 39.5726 11.9286 39.6587 12.0232 39.906C12.1211 40.1605 12.5648 40.2458 12.5648 40.0099C12.5648 39.5875 14.1557 39.4747 14.6244 39.8637ZM23.838 39.763C24.6356 40.0823 25.0898 40.6891 25.1571 41.5263L25.2082 42.1608L23.5191 42.2072C21.5448 42.2615 21.3604 42.3642 22.0329 43.0366C22.603 43.6072 23.2384 43.6773 24.1061 43.2653C24.5168 43.0705 24.7105 43.0483 24.8434 43.1812C25.093 43.4308 24.603 43.9486 23.8968 44.1818C20.9413 45.157 19.4164 40.7793 22.3477 39.7336C23.12 39.4582 23.0729 39.457 23.838 39.763ZM40.2128 40.1717C40.7407 40.6678 40.8039 44.1741 40.2849 44.1741C39.8645 44.1741 39.7844 43.8754 39.7844 42.3086C39.7844 40.725 39.4775 40.189 38.6843 40.388C37.7469 40.6235 37.3684 41.3894 37.3684 43.0527C37.3684 44.1468 37.3527 44.1943 37.006 44.1451C36.518 44.0759 36.3493 40.2035 36.8176 39.815C37.0427 39.6281 37.1107 39.6366 37.2839 39.8734C37.4751 40.1351 37.5259 40.1335 38.1721 39.844C38.9613 39.4908 39.5963 39.5927 40.2128 40.1717ZM81.3864 39.8589C82.0935 40.1303 82.3049 40.7334 82.3049 42.4802C82.3049 44.0811 82.1289 44.4685 81.6006 44.03C81.4384 43.8955 81.2358 43.9112 80.8022 44.0924C79.1295 44.7914 77.4714 43.6652 78.2385 42.3513C78.5864 41.7558 79.343 41.4647 80.5851 41.4482C81.6522 41.4345 81.7726 41.1699 80.9806 40.5792C80.5437 40.2535 79.8563 40.2929 78.9032 40.6992C78.5642 40.8434 78.3496 40.3264 78.6347 40.0517C78.894 39.8025 80.1829 39.517 80.6137 39.6136C80.7909 39.6535 81.1384 39.7638 81.3864 39.8589ZM2.41785 39.8222C2.55073 39.8283 2.91473 39.7888 3.22639 39.7353C4.14927 39.5766 4.40295 40.0018 4.48348 41.8419C4.56643 43.7441 4.46455 44.2128 3.98257 44.1443C3.64193 44.096 3.62381 44.0131 3.58032 42.297C3.50865 39.4542 2.72145 39.5879 2.57891 42.4665C2.50482 43.9595 2.47181 44.0936 2.17626 44.0936C1.8795 44.0936 1.84769 43.9595 1.7736 42.4024C1.62744 39.3362 0.646164 39.7075 0.646164 42.8293C0.646164 44.0666 0.620393 44.1741 0.324038 44.1741C0.0180192 44.1741 0.00191168 44.0666 0.00191168 42.0268C0.00191168 39.513 -0.0991538 39.7087 1.16841 39.7663C1.72287 39.7912 2.28497 39.8166 2.41785 39.8222ZM33.6181 39.7936C33.7469 39.8754 33.8291 40.5196 33.8597 41.6837L33.9056 43.4494L34.3582 43.5013C35.4888 43.631 34.7665 44.0936 33.4337 44.0936C32.0393 44.0936 31.6225 43.8242 32.5281 43.5085L33.0318 43.333L32.9855 41.9434C32.944 40.6996 32.9054 40.5478 32.6171 40.4963C31.7506 40.3408 31.9108 39.6632 32.8132 39.6668C33.1482 39.668 33.5106 39.7252 33.6181 39.7936ZM45.7711 39.9495C46.0739 40.2523 45.8705 44.6541 45.5295 45.1647C44.9521 46.0296 43.2758 46.2748 42.3666 45.6273C41.5077 45.0157 41.8198 44.4302 42.7141 44.9754C43.5858 45.5065 44.5728 45.3153 44.9227 44.547C45.153 44.0413 45.0149 43.7997 44.6171 44.0127C42.8172 44.9758 40.8897 42.7294 41.8689 40.8099C42.3827 39.8025 45.0382 39.2166 45.7711 39.9495ZM59.7102 39.7936C59.8387 39.8754 59.9212 40.518 59.9518 41.6765C59.9969 43.4039 60.005 43.4373 60.4004 43.5303C61.3494 43.7534 60.8352 44.0924 59.4743 44.1403C58.2437 44.1838 58.1455 44.1637 58.1455 43.8697C58.1455 43.6632 58.2719 43.5343 58.5079 43.5009C59.0285 43.4268 59.1719 40.4697 58.6545 40.4697C58.2208 40.4697 57.9365 40.0988 58.1817 39.8536C58.3935 39.6418 59.4086 39.602 59.7102 39.7936ZM66.6416 39.8162C66.6637 39.8214 66.6818 40.88 66.6818 42.1689C66.6818 44.7294 66.5646 45.1856 65.7746 45.7034C64.679 46.4214 62.2429 45.7183 62.797 44.8442C62.9073 44.6698 63.0652 44.6956 63.6208 44.979C64.4386 45.3962 65.2536 45.3141 65.6305 44.7761C66.0806 44.1331 65.9582 44.0006 65.0152 44.1113C63.3841 44.3034 62.4942 43.5234 62.4942 41.9023C62.4942 40.1029 64.1729 39.2589 66.6416 39.8162ZM70.2252 41.5971L70.3057 43.4494L70.7486 43.5005C71.0651 43.5367 71.1916 43.6422 71.1916 43.8693C71.1916 44.1637 71.0941 44.1838 69.8757 44.1403C68.4446 44.0896 68.036 43.8198 68.9222 43.511L69.4199 43.3374V41.9036C69.4199 40.4987 69.4122 40.4697 69.0345 40.4697C68.6001 40.4697 68.3331 40.0034 68.6492 39.7965C68.7632 39.722 69.1461 39.6797 69.5004 39.703L70.1447 39.7449L70.2252 41.5971ZM22.5507 40.4169C21.2843 40.9138 21.532 41.4361 23.0339 41.4361C23.7425 41.4361 24.3224 41.3716 24.3224 41.2927C24.3224 40.7443 23.1692 40.1741 22.5507 40.4169ZM43.1997 40.4713C41.8186 41.0483 42.3082 43.3688 43.8109 43.3688C44.8248 43.3688 45.0994 43.0539 45.0994 41.8911C45.0994 40.6545 44.2611 40.028 43.1997 40.4713ZM53.6933 40.462C52.2776 41.0584 52.6863 43.5089 54.2039 43.5247C55.761 43.5412 56.0404 40.6481 54.5063 40.3944C54.249 40.3517 53.883 40.3823 53.6933 40.462ZM64.1048 40.5116C63.1682 40.9823 62.9528 42.7636 63.7791 43.2057C64.2844 43.4763 65.3132 43.4022 65.6099 43.0745C65.9373 42.7125 65.986 40.9195 65.6752 40.669C65.3192 40.3823 64.5216 40.3022 64.1048 40.5116ZM7.03753 42.2402C5.78527 42.4745 5.60528 43.395 6.79191 43.4977C7.70312 43.5762 8.9731 42.7306 8.52414 42.3441C8.34576 42.1902 7.58756 42.1375 7.03753 42.2402ZM79.9695 42.2273C79.1642 42.3598 78.9226 42.5063 78.9226 42.8631C78.9226 43.6374 80.1986 43.7904 81.0039 43.1127C81.5249 42.6746 81.6578 42.2414 81.2713 42.2414C81.1456 42.2414 80.9463 42.2144 80.8284 42.1814C80.7104 42.1488 80.3238 42.1693 79.9695 42.2273Z" fill="black"/>
</svg>
